<svg xmlns="http://www.w3.org/2000/svg" xml:space="preserve" width="11.1111in" height="11.1111in" version="1.1" style="shape-rendering:geometricPrecision; text-rendering:geometricPrecision; image-rendering:optimizeQuality; fill-rule:evenodd; clip-rule:evenodd" viewBox="0 0 11111 11111" xmlns:xlink="http://www.w3.org/1999/xlink">
 <defs>
  <style type="text/css">
   
    .fil0 {fill:#F44C71}
    .fil1 {fill:white}
   
  </style>
 </defs>
 <g id="Layer_x0020_1">
  <metadata id="CorelCorpID_0Corel-Layer"></metadata>
  <circle class="fil0" cx="5556" cy="5556" r="5556" id="id_103" style="fill: rgb(240, 202, 0);"></circle>
  <path class="fil1" d="M5196 7503l-2752 0c-69,0 -125,-56 -125,-125l0 -736 3876 0 0 283c-416,28 -780,251 -999,578zm928 -3376c-24,0 -48,-7 -69,-21 -34,-23 -55,-62 -55,-104l0 -354 -246 0c-69,0 -125,-56 -125,-125l0 -1355c0,-69 56,-125 125,-125l2646 0c69,0 125,56 125,125l0 1355c0,69 -56,125 -125,125l-1113 0 -1114 469c-16,7 -32,10 -49,10zm1810 -1001c36,0 65,-29 65,-65 0,-36 -29,-65 -65,-65l-1714 0c-36,0 -65,29 -65,65 0,36 29,65 65,65l1714 0zm0 -431c36,0 65,-29 65,-65 0,-36 -29,-65 -65,-65l-1714 0c-36,0 -65,29 -65,65 0,36 29,65 65,65l1714 0zm1050 6373l-667 0 0 -787c0,-36 -29,-65 -65,-65 -36,0 -65,29 -65,65l0 787 -2170 0 0 -787c0,-36 -29,-65 -65,-65 -36,0 -65,29 -65,65l0 787 -667 0c-69,0 -125,-55 -125,-124l0 -714c0,-655 532,-1188 1187,-1188l146 0 145 -246c-209,-159 -344,-410 -344,-692l0 -236c-158,-244 -223,-502 -189,-747 33,-234 157,-444 347,-590 101,-77 235,-89 353,-100 57,-5 110,-10 148,-21 225,-64 550,-122 777,111 66,67 97,137 128,204 33,71 63,138 138,216 244,250 256,577 37,924l0 239c0,280 -133,529 -340,688l147 250 146 0c655,0 1188,533 1188,1188l0 714c0,69 -56,124 -125,124zm-2294 -1977c203,56 311,85 406,85 95,0 199,-28 405,-84l12 -3 -102 -174c-97,37 -203,58 -313,58 -108,0 -211,-20 -306,-56l-102 174zm1028 -1261l0 -1c-3,-284 -361,-492 -679,-501 -158,-4 -526,36 -560,507l0 269c0,230 126,432 314,539 4,1 8,3 11,6 2,0 3,1 5,2 86,46 185,72 289,72 107,0 207,-27 294,-74 2,-1 4,-2 6,-3 3,-2 7,-4 10,-6 185,-107 310,-307 310,-536l0 -274zm-4077 -1303c-8,-20 -11,-42 -8,-64l-15 -109 67 0 105 -179c-171,-136 -280,-346 -280,-581l0 -190c-303,-472 -144,-917 140,-1134 132,-101 319,-75 424,-104 110,-32 448,-127 666,97 115,117 103,227 222,350 205,211 218,497 36,789l0 192c0,233 -107,442 -276,578l107 182 64 0 -13 101c5,26 2,54 -10,78l-34 268 -316 62 43 -319 3 -6c10,-27 1,-58 -23,-75l-7 -5 49 -27 -80 -136c-79,28 -163,44 -251,44 -86,0 -169,-15 -246,-42l-78 134 48 27 -7 5c-23,17 -33,48 -23,75l3 6 43 319 -316 -62 -37 -274zm369 -503c3,2 7,3 10,5 2,1 3,2 4,3 69,36 147,57 230,57 85,0 164,-22 234,-59 1,-1 3,-2 4,-3 3,-2 7,-3 10,-5 147,-86 246,-245 246,-428l0 -228c-2,-224 -289,-388 -544,-395 -125,-4 -417,28 -444,400l0 223c0,184 101,345 250,430zm-1443 1687l0 -348c0,-527 405,-960 921,-1005l67 506c4,28 25,50 52,55l390 77c4,1 8,1 12,1 1,0 3,0 4,0l22 166c0,1 0,2 0,4l-63 544 -606 0 0 -155c0,-35 -29,-65 -65,-65 -36,0 -65,30 -65,65l0 155 -669 0zm1538 -1184l152 83 153 -84 7 5 -32 578 -256 0 -31 -577 7 -5zm918 -169c517,43 924,477 924,1005l0 348 -669 0 0 -155c0,-35 -29,-65 -65,-65 -36,0 -65,30 -65,65l0 155 -606 0 -63 -544c0,-2 0,-3 0,-4l22 -166c1,0 3,0 4,0 4,0 8,0 12,-1l390 -77c27,-5 48,-27 52,-55l64 -506zm-612 1353l-308 0 54 -472 200 0 54 472zm1791 811l-4075 0c-69,0 -125,-55 -125,-124l0 -442c0,-69 56,-125 125,-125l3941 0c13,24 26,48 41,71l0 202c0,149 33,291 93,418z" id="id_104" style="fill: rgb(164, 114, 30);"></path>
 </g>
</svg>