<svg xmlns="http://www.w3.org/2000/svg" xml:space="preserve" width="2.66666in" height="2.66666in" version="1.1" style="shape-rendering:geometricPrecision; text-rendering:geometricPrecision; image-rendering:optimizeQuality; fill-rule:evenodd; clip-rule:evenodd" viewBox="0 0 2667 2667" xmlns:xlink="http://www.w3.org/1999/xlink">
 <defs>
  <style type="text/css">
   
    .fil0 {fill:#F44C71}
    .fil1 {fill:white}
   
  </style>
 </defs>
 <g id="Layer_x0020_1">
  <metadata id="CorelCorpID_0Corel-Layer"></metadata>
  <circle class="fil0" cx="1333" cy="1333" r="1333" id="id_101" style="fill: rgb(240, 202, 0);"></circle>
  <path class="fil1" d="M1584 2062l-1081 0c-13,0 -23,-11 -23,-23l0 -1411c0,-13 10,-23 23,-23l1081 0 0 1457zm49 102c-5,0 -10,-2 -14,-6 -5,-4 -8,-10 -8,-17l0 -1615c0,-7 3,-13 8,-18 5,-4 12,-6 19,-5l530 102c11,3 19,12 19,23l0 1411c0,11 -8,20 -19,22l-530 102c-2,0 -3,1 -5,1zm100 -132c1,0 2,0 3,0l330 -63c6,-1 11,-7 11,-13l0 -1246c0,-6 -5,-11 -11,-12l-330 -64c-4,0 -8,1 -11,3 -3,3 -4,6 -4,10l0 1373c0,4 1,7 4,10 3,1 5,2 8,2zm13 -1370l305 59 0 1225 -305 58 0 -1342zm-245 543c7,0 13,-6 13,-13l0 -442c0,-7 -6,-13 -13,-13l-938 0c-7,0 -13,6 -13,13l0 442c0,7 6,13 13,13l938 0zm-926 -25l0 -418 914 0 0 418 -914 0zm546 -92c7,0 13,-5 13,-12l0 -210c0,-7 -6,-12 -13,-12 -7,0 -12,5 -12,12l0 210c0,7 5,12 12,12zm-66 1c3,0 5,-1 8,-2 5,-5 6,-12 2,-18l-72 -98 72 -98c4,-6 3,-14 -2,-18 -6,-4 -14,-3 -18,3l-68 91 -67 -91c-4,-6 -12,-7 -18,-3 -5,4 -6,12 -2,18l72 98 -72 98c-4,6 -3,13 2,18 6,4 14,3 18,-3l67 -92 68 92c2,3 6,5 10,5zm207 -1c7,0 13,-5 13,-12l0 -197 62 0c7,0 12,-6 12,-13 0,-7 -5,-12 -12,-12l-149 0c-7,0 -13,5 -13,12 0,7 6,13 13,13l61 0 0 197c0,7 6,12 13,12zm-430 0c7,0 13,-5 13,-12 0,-7 -6,-13 -13,-13l-92 0 0 -79 92 0c7,0 13,-6 13,-13 0,-7 -6,-13 -13,-13l-92 0 0 -79 92 0c7,0 13,-6 13,-13 0,-7 -6,-12 -13,-12l-105 0c-7,0 -12,5 -12,12l0 210c0,7 5,12 12,12l105 0zm241 842c3,0 6,-1 9,-4l310 -295c2,-3 4,-6 4,-9 0,-4 -2,-7 -4,-10l-310 -295c-4,-3 -10,-4 -14,-2 -5,2 -8,6 -8,11l0 135 -298 0c-7,0 -12,6 -12,13l0 295c0,7 5,13 12,13l298 0 0 135c0,5 3,10 8,12 1,0 3,1 5,1zm-298 -173l0 -270 298 0c7,0 12,-6 12,-13l0 -118 280 266 -280 265 0 -118c0,-7 -5,-12 -12,-12l-298 0z" id="id_102" style="fill: rgb(164, 114, 30);"></path>
 </g>
</svg>