<svg xmlns="http://www.w3.org/2000/svg" xml:space="preserve" width="2.66666in" height="2.66666in" version="1.1" style="shape-rendering:geometricPrecision; text-rendering:geometricPrecision; image-rendering:optimizeQuality; fill-rule:evenodd; clip-rule:evenodd" viewBox="0 0 2667 2667" xmlns:xlink="http://www.w3.org/1999/xlink">
 <defs>
  <style type="text/css">
   
    .fil0 {fill:#FF700D}
    .fil1 {fill:white}
   
  </style>
 </defs>
 <g id="Layer_x0020_1">
  <metadata id="CorelCorpID_0Corel-Layer"></metadata>
  <circle class="fil0" cx="1333" cy="1333" r="1333" id="id_101" style="fill: rgb(240, 202, 0);"></circle>
  <path class="fil1" d="M1952 2051l-127 0 0 -434c0,-8 -7,-15 -15,-16 -2,-1 -4,-1 -6,0l-395 0c-2,-1 -5,-1 -7,0 -8,1 -14,8 -14,16l0 434 -110 0 0 -434c0,-8 -6,-15 -15,-16 -2,-1 -4,-1 -6,0l-395 0c-2,-1 -4,-1 -7,0 -8,1 -13,8 -13,16l0 434 -127 0c-17,0 -30,-14 -30,-30l0 -698c2,-2 4,-5 6,-7l196 -273 448 -178 445 178 196 273c2,2 4,4 6,7l0 698c0,16 -14,30 -30,30zm133 -708c-4,0 -8,-1 -12,-1 -29,-3 -55,-19 -72,-44l-202 -279 -464 -186 -467 186 -202 279c-16,24 -42,40 -69,44 -26,3 -52,-4 -73,-21 -23,-16 -37,-39 -42,-65 -4,-26 2,-53 18,-76l216 -302c11,-20 30,-30 46,-37 0,-1 1,-1 2,-1l530 -217c0,0 1,0 2,-1 26,-8 49,-8 75,0 1,1 2,1 2,1l533 217c1,0 2,0 2,1 16,7 32,17 43,37l215 302c16,23 22,50 18,76 -4,26 -19,49 -41,65 -16,14 -37,22 -58,22zm-293 708l-26 0 -139 -177 165 -209 0 386zm-67 0l-237 0 118 -151 119 151zm-279 0l-24 0 0 -386 163 209 -139 177zm-7 -417l335 0 -168 213 -167 -213zm-194 417l-30 0 -135 -174 165 -211 0 385zm-185 -200l-168 -217 336 0 -168 217zm114 200l-228 0 114 -147 114 147zm-270 0l-29 0 0 -385 164 211 -135 174zm571 -717c9,0 17,-7 17,-16l0 -284c0,-9 -8,-17 -17,-17l-283 0c-10,0 -17,8 -17,17l0 284c0,9 7,16 17,16l283 0zm-267 -33l0 -250 251 0 0 250 -251 0z" id="id_102" style="fill: rgb(164, 114, 30);"></path>
 </g>
</svg>