<svg xmlns="http://www.w3.org/2000/svg" xml:space="preserve" width="2.66666in" height="2.66666in" version="1.1" style="shape-rendering:geometricPrecision; text-rendering:geometricPrecision; image-rendering:optimizeQuality; fill-rule:evenodd; clip-rule:evenodd" viewBox="0 0 2667 2667" xmlns:xlink="http://www.w3.org/1999/xlink">
 <defs>
  <style type="text/css">
   
    .fil0 {fill:#00AB94}
    .fil1 {fill:white}
   
  </style>
 </defs>
 <g id="Layer_x0020_1">
  <metadata id="CorelCorpID_0Corel-Layer"></metadata>
  <circle class="fil0" cx="1333" cy="1333" r="1333" id="id_101" style="fill: rgb(240, 202, 0);"></circle>
  <path class="fil1" d="M1717 2187l-770 0c-112,0 -219,-44 -300,-126 -81,-81 -126,-188 -126,-300l0 -363c-1,-8 0,-15 5,-21 5,-8 14,-13 25,-13 10,0 19,5 24,13l89 91 91 -98c6,-6 14,-9 22,-9 0,0 0,0 0,0 8,0 16,3 22,9l95 98 92 -98c6,-6 13,-9 22,-9 0,0 0,0 0,0 8,0 16,3 22,9l95 98 92 -98c5,-6 13,-9 21,-9 0,0 0,0 1,0 8,0 16,3 21,9l95 97 89 -96c5,-7 13,-10 22,-10 0,0 0,0 0,0 8,0 17,4 22,10l85 95 88 -95c5,-7 13,-10 22,-10 8,0 16,4 22,10l87 95 85 -95c6,-6 14,-10 22,-10 0,0 0,0 1,0 8,0 16,4 22,10l88 96 76 -83c4,-12 15,-20 28,-20 3,0 5,0 8,1 5,1 10,3 15,7 9,9 12,23 7,34l0 355c0,112 -45,219 -126,300 -81,81 -188,126 -301,126zm-353 -774c12,-148 48,-273 106,-363 61,-95 142,-147 229,-147 1,0 2,0 3,0 90,1 173,58 234,161 51,86 84,200 96,334l-22 24 -66 -72c-12,-12 -28,-19 -44,-19 -18,0 -34,7 -46,20l-62 70 -65 -71c-12,-12 -28,-19 -44,-19 -17,0 -33,7 -45,19l-65 71 -62 -70c-12,-13 -28,-20 -45,-20 -17,0 -33,7 -45,19l-57 63zm535 -152c9,-2 14,-10 13,-19 -18,-82 -57,-175 -128,-226 -7,-5 -17,-3 -22,4 -5,7 -3,17 4,22 63,45 99,133 114,207 2,8 11,14 19,12zm-1266 132c13,-131 45,-244 96,-329 59,-101 141,-158 230,-161 84,-2 164,45 225,133 56,81 94,193 111,327l-13 -14c-12,-11 -27,-18 -43,-18 -17,0 -33,7 -44,19l-71 74 -73 -75c-11,-11 -27,-18 -43,-18 -17,0 -33,7 -44,19l-70 74 -74 -75c-11,-11 -27,-18 -43,-18 -17,0 -32,7 -44,19l-70 74 -30 -31zm527 -123c9,-1 16,-9 14,-18 -12,-87 -46,-187 -117,-244 -7,-6 -17,-5 -23,2 -6,7 -5,18 2,24 63,50 94,145 105,222 2,9 10,16 19,14zm175 134l-6 -6 -4 -39c-15,-117 -48,-243 -116,-340 -48,-69 -115,-125 -196,-141 21,-113 58,-208 109,-277 58,-78 132,-122 210,-122 78,0 153,44 210,122 51,69 88,164 108,277 -87,17 -157,80 -205,155 -69,108 -99,245 -110,371zm186 -555c9,0 16,-8 15,-18 -9,-87 -38,-188 -106,-248 -7,-6 -18,-6 -24,1 -6,7 -6,17 1,23 61,54 88,150 96,228 1,9 9,15 18,14zm133 1188c193,0 350,-157 350,-350 0,-9 -7,-16 -17,-16 -9,0 -16,7 -16,16 0,175 -142,317 -317,317l-643 0c-10,0 -17,7 -17,17 0,9 7,16 17,16l643 0z" id="id_102" style="fill: rgb(164, 114, 30);"></path>
 </g>
</svg>