<svg xmlns="http://www.w3.org/2000/svg" xml:space="preserve" width="2.83333in" height="2.83333in" version="1.1" style="shape-rendering:geometricPrecision; text-rendering:geometricPrecision; image-rendering:optimizeQuality; fill-rule:evenodd; clip-rule:evenodd" viewBox="0 0 2833 2833" xmlns:xlink="http://www.w3.org/1999/xlink">
 <defs>
  <style type="text/css">
   
    .fil0 {fill:#05B443}
    .fil1 {fill:#FDFDFD}
   
  </style>
 </defs>
 <g id="Layer_x0020_1">
  <metadata id="CorelCorpID_0Corel-Layer"></metadata>
  <circle class="fil0" cx="1417" cy="1417" r="1417" id="id_101" style="fill: rgb(240, 202, 0);"></circle>
  <path class="fil1" d="M1947 2270l-1177 0c-33,0 -60,-27 -60,-60l0 -1457c0,-35 26,-63 60,-63l1177 0c33,0 60,28 60,63l0 1457c0,33 -27,60 -60,60zm-287 -823l-840 0c-13,0 -23,-11 -23,-24 0,-13 10,-23 23,-23l840 0c13,0 23,10 23,23 0,13 -10,24 -23,24zm0 -140l-840 0c-13,0 -23,-11 -23,-24 0,-13 10,-23 23,-23l840 0c13,0 23,10 23,23 0,13 -10,24 -23,24zm170 -144l-1010 0c-13,0 -23,-10 -23,-23 0,-13 10,-23 23,-23l1010 0c13,0 23,10 23,23 0,13 -10,23 -23,23zm0 -143l-1010 0c-13,0 -23,-10 -23,-23 0,-13 10,-24 23,-24l1010 0c13,0 23,11 23,24 0,13 -10,23 -23,23zm0 -143l-1010 0c-13,0 -23,-11 -23,-24 0,-13 10,-23 23,-23l1010 0c13,0 23,10 23,23 0,13 -10,24 -23,24zm-137 810c-22,0 -40,18 -40,43 0,25 18,43 40,43 24,0 44,-19 44,-43 0,-24 -20,-43 -44,-43zm-706 13c-24,0 -44,19 -44,43 0,22 21,40 44,40 20,0 40,-19 40,-40 0,-23 -19,-43 -40,-43zm392 355c-1,-1 -2,-1 -2,-2 -2,-1 -3,-3 -4,-4 -7,-8 -18,-12 -30,-12 -10,0 -20,3 -27,10 -1,1 -2,2 -3,2 -1,2 -2,3 -3,4 -6,7 -10,17 -10,27 0,23 19,40 43,40 25,0 44,-17 44,-40 0,-9 -3,-18 -8,-25zm14 -50l229 -224c-10,-14 -15,-32 -15,-51 0,-50 38,-90 86,-90 50,0 90,40 90,90 0,50 -40,90 -90,90 -13,0 -25,-3 -36,-8l-233 228c6,12 9,25 9,40 0,49 -39,87 -90,87 -50,0 -90,-38 -90,-87 0,-16 5,-31 12,-45l-230 -221c-14,10 -31,16 -48,16 -49,0 -90,-40 -90,-87 0,-49 40,-90 90,-90 47,0 86,42 86,90 0,13 -3,25 -8,36l233 223c13,-8 29,-12 45,-12 19,0 35,5 50,15z" id="id_102" style="fill: rgb(164, 114, 30);"></path>
  <path class="fil1" d="M2063 2143l-10 0 0 -1390c0,-60 -46,-110 -106,-110l-1120 0 0 -20c0,-33 27,-60 60,-60l1176 0c33,0 60,27 60,60l0 1457c0,36 -26,63 -60,63z" id="id_103" style="fill: rgb(164, 114, 30);"></path>
 </g>
</svg>