<svg xmlns="http://www.w3.org/2000/svg" xml:space="preserve" width="11.1111in" height="11.1111in" version="1.1" style="shape-rendering:geometricPrecision; text-rendering:geometricPrecision; image-rendering:optimizeQuality; fill-rule:evenodd; clip-rule:evenodd" viewBox="0 0 11111 11111" xmlns:xlink="http://www.w3.org/1999/xlink">
 <defs>
  <style type="text/css">
   
    .fil1 {fill:#FF4100}
    .fil0 {fill:#FF5900}
    .fil2 {fill:white}
   
  </style>
 </defs>
 <g id="_327872024">
  <rect class="fil0" width="11111" height="11111" rx="5556" ry="5556" id="id_101" style="fill: rgb(240, 202, 0);"></rect>
  <path class="fil1" d="M5556 0c3055,0 5555,2500 5555,5556l0 0c0,3055 -2500,5555 -5555,5555l0 -11111z" id="id_102" style="fill: rgb(240, 202, 0);"></path>
 </g>
 <g id="Layer_x0020_1">
  <metadata id="CorelCorpID_0Corel-Layer"></metadata>
  <path class="fil2" d="M2353 7291l0 -3618c0,-67 54,-121 121,-121l3469 0 0 3009c0,133 108,241 241,241l2199 0 0 489 -6030 0zm6637 -609l-2806 0c-67,0 -121,-54 -121,-121l0 -3848c0,-67 54,-121 121,-121l2806 0c67,0 121,54 121,121l0 3848c0,67 -54,121 -121,121zm-469 -3357c34,0 61,-28 61,-61 0,-34 -27,-61 -61,-61l-1868 0c-34,0 -61,27 -61,61 0,33 27,61 61,61l1868 0zm0 2746c34,0 61,-27 61,-61 0,-33 -27,-61 -61,-61l-1868 0c-34,0 -61,28 -61,61 0,34 27,61 61,61l1868 0zm0 -549c34,0 61,-27 61,-61 0,-34 -27,-61 -61,-61l-1868 0c-34,0 -61,27 -61,61 0,34 27,61 61,61l1868 0zm0 -550c34,0 61,-27 61,-60 0,-34 -27,-61 -61,-61l-1868 0c-34,0 -61,27 -61,61 0,33 27,60 61,60l1868 0zm0 -549c34,0 61,-27 61,-61 0,-33 -27,-60 -61,-60l-1868 0c-34,0 -61,27 -61,60 0,34 27,61 61,61l1868 0zm0 -549c34,0 61,-27 61,-61 0,-33 -27,-61 -61,-61l-1868 0c-34,0 -61,28 -61,61 0,34 27,61 61,61l1868 0zm94 4645l-6494 0c-67,0 -121,-54 -121,-121l0 -866c0,-67 54,-121 121,-121l2122 0 0 554c0,33 27,61 60,61l2130 0c33,0 61,-28 61,-61l0 -554 2121 0c67,0 121,54 121,121l0 866c0,67 -54,121 -121,121zm-4251 -1108l2008 0 0 493 -2008 0 0 -493zm-447 -1523c16,0 31,-7 43,-18l810 -811c24,-23 24,-62 0,-86 -23,-23 -62,-23 -86,0l-767 768 -305 -304c-23,-24 -62,-24 -85,0 -24,23 -24,62 0,85l347 348c11,11 27,18 43,18zm1320 683c33,0 60,-28 60,-61l0 -2177c0,-33 -27,-60 -60,-60l-2177 0c-33,0 -61,27 -61,60l0 2177c0,33 28,61 61,61l2177 0zm-2116 -122l0 -2055 2055 0 0 2055 -2055 0z" id="id_103" style="fill: rgb(164, 114, 30);"></path>
 </g>
</svg>