<svg xmlns="http://www.w3.org/2000/svg" xml:space="preserve" width="2.66666in" height="2.66666in" version="1.1" style="shape-rendering:geometricPrecision; text-rendering:geometricPrecision; image-rendering:optimizeQuality; fill-rule:evenodd; clip-rule:evenodd" viewBox="0 0 2666.66 2666.66" xmlns:xlink="http://www.w3.org/1999/xlink" xmlns:xodm="http://www.corel.com/coreldraw/odm/2003">
 <defs>
  <style type="text/css">
   
    .fil1 {fill:#FEFEFE}
    .fil0 {fill:#00B389}
   
  </style>
 </defs>
 <g id="Layer_x0020_1">
  <metadata id="CorelCorpID_0Corel-Layer"></metadata>
  <circle class="fil0" cx="1333.33" cy="1333.33" r="1333.33" id="id_101" style="fill: rgb(240, 202, 0);"></circle>
  <path class="fil1" d="M855.99 1763.27l0 -503.37c0,-10.93 8.88,-19.81 19.81,-19.81l145.33 0c10.94,0 19.81,8.88 19.81,19.81l0 319.09c-44.65,51.38 -76.01,114.61 -88.66,184.28l-96.29 0z" id="id_102" style="fill: rgb(173, 122, 28);"></path>
  <path class="fil1" d="M1112.43 1514.8l0 -464.33c0,-10.93 8.88,-19.81 19.81,-19.81l145.31 0c10.94,0 19.81,8.88 19.81,19.81l0 396.73c-68.3,6.29 -131.51,30.38 -184.94,67.59z" id="id_103" style="fill: rgb(171, 122, 31);"></path>
  <path class="fil1" d="M1368.87 1447.2l0 -287.74c0,-10.93 8.89,-19.81 19.81,-19.81l145.32 0c10.93,0 19.81,8.87 19.81,19.81l0 355.35c-53.43,-37.22 -116.64,-61.31 -184.94,-67.6z" id="id_104" style="fill: rgb(168, 120, 30);"></path>
  <path class="fil1" d="M1713.96 1763.27c-12.65,-69.66 -44,-132.88 -88.65,-184.26l0 -737.95c0,-10.94 8.88,-19.81 19.81,-19.81l145.32 0c10.94,0 19.81,8.88 19.81,19.81l0 922.2 -96.29 0z" id="id_105" style="fill: rgb(164, 114, 30);"></path>
  <path class="fil1" d="M1991.48 1868.93l-324.13 0c-47.83,0 -47.83,-72.65 0,-72.65l287.81 0 0 -1280.41c0,-47.83 72.64,-47.83 72.64,0l0 1316.75c0,18.19 -13.23,36.31 -36.32,36.31zm-992.59 0l-324.15 0c-47.83,0 -47.83,-72.65 0,-72.65l324.15 0c47.83,0 47.83,72.65 0,72.65z" id="id_106" style="fill: rgb(164, 114, 30);"></path>
  <path class="fil1" d="M1539.49 716.83l-152.93 152.93c-11.87,11.87 -30.37,14.06 -44.68,5.28l-164.83 -101.16 -300.37 272.34c-34.96,31.7 -84.63,-21.33 -48.79,-53.83l320.54 -290.63c11.94,-10.82 29.66,-12.48 43.4,-4.06l163.63 100.43 132.44 -132.45c-37.58,-5.89 -40.98,-67.15 2.79,-72.02 20.65,-2.3 92.58,-13.2 106.27,-8.36 18.27,6.45 26.18,22.41 24.06,41.54l-9.71 87.42c-4.59,41.3 -64.15,43.28 -71.81,2.57z" id="id_107" style="fill: rgb(164, 114, 30);"></path>
  <path class="fil1" d="M1333.11 2186.67c-195.22,0 -354.04,-158.84 -354.04,-354.06 0,-195.21 158.82,-354.05 354.04,-354.05 195.22,0 354.06,158.84 354.06,354.05 0,195.22 -158.84,354.06 -354.06,354.06zm-170.22 -249.6c-41.17,0 -74.16,-43.49 -46.63,-58.88 23.49,-13.13 24.88,19.25 46.63,19.25 12.41,0 22.51,-10.08 22.51,-22.51 0,-41 -84.64,-4.7 -84.64,-84.64 0,-68.95 96.26,-85.85 120.3,-21.89 9.17,24.4 -27.9,38.39 -37.09,13.93 -8.7,-23.15 -43.57,-17.04 -43.57,7.94 0,41.01 84.68,4.73 84.66,84.64 -0.02,34.26 -27.9,62.15 -62.15,62.15zm340.17 0c-34.41,0 -62.41,-28 -62.41,-62.41l0 -84.09c0,-82.14 124.81,-82.15 124.81,0l0 84.09c-0,34.41 -28,62.41 -62.41,62.41zm0 -169.28c-12.56,0 -22.77,10.21 -22.77,22.77l0 84.09c0,29.97 45.54,29.97 45.54,0l0 -84.09c0,-12.56 -10.2,-22.77 -22.77,-22.77zm-132.07 84.64l-55.9 0 0 45.02c41.57,0 85.19,-8.37 85.19,19.81 0,10.93 -8.87,19.83 -19.81,19.83l-85.19 0c-10.94,0 -19.81,-8.89 -19.81,-19.81l0 -169.3c0,-10.93 8.88,-19.81 19.81,-19.81l85.19 0c26.08,0 26.07,39.62 0,39.62l-65.38 0 0 45.02 55.9 0c26.08,0 26.08,39.62 0,39.62z" id="id_108" style="fill: rgb(164, 114, 30);"></path>
 </g>
</svg>