<svg xmlns="http://www.w3.org/2000/svg" xml:space="preserve" width="2.66666in" height="2.66666in" version="1.1" style="shape-rendering:geometricPrecision; text-rendering:geometricPrecision; image-rendering:optimizeQuality; fill-rule:evenodd; clip-rule:evenodd" viewBox="0 0 2666.66 2666.66" xmlns:xlink="http://www.w3.org/1999/xlink" xmlns:xodm="http://www.corel.com/coreldraw/odm/2003">
 <defs>
  <style type="text/css">
   
    .fil1 {fill:#FEFEFE}
    .fil0 {fill:#FFB500}
   
  </style>
 </defs>
 <g id="Layer_x0020_1">
  <metadata id="CorelCorpID_0Corel-Layer"></metadata>
  <circle class="fil0" cx="1333.33" cy="1333.33" r="1333.33" id="id_101" style="fill: rgb(240, 202, 0);"></circle>
  <path class="fil1" d="M1457.7 2142.78l-104.37 0 0 -441.09c0,-26.32 -40,-26.33 -40,0l0 441.09 -104.37 0c-53.44,0 -96.92,-43.47 -96.92,-96.92l0 -324.19 -111.18 0c-11.04,0 -20,-8.97 -20,-20l0 -526.74c0,-117.04 95.22,-212.26 212.26,-212.26l280.4 0c117.06,0 212.28,95.22 212.28,212.26l0 526.73c0.02,11.04 -8.96,20 -20,20l-111.2 0 0 324.19c0.02,53.45 -43.45,96.92 -96.9,96.92z" id="id_102" style="fill: rgb(164, 114, 30);"></path>
  <path class="fil1" d="M1333.33 904.35c-104.89,0 -190.24,-85.35 -190.24,-190.24 0,-104.9 85.35,-190.23 190.24,-190.23 104.89,0 190.25,85.35 190.25,190.23 0,104.89 -85.35,190.24 -190.25,190.24z" id="id_103" style="fill: rgb(164, 114, 30);"></path>
  <path class="fil1" d="M872.47 2142.77l-81.37 0 0 -363.25c0,-26.32 -40,-26.33 -40,0l0 363.25 -81.39 0c-45.59,0 -82.69,-37.1 -82.69,-82.69l0 -260.56 -87.01 0c-11.04,0 -20,-8.97 -20,-20l0 -429.39c0,-97.44 79.28,-176.72 176.74,-176.72l228.57 0c19.6,0 41.67,4.89 62.22,12.54l0 515.72c0,29.43 23.9,53.33 53.33,53.33l61.17 0c0,53.92 4.15,44.52 -106.86,44.52l0 260.55c0,45.6 -37.08,82.7 -82.69,82.7z" id="id_104" style="fill: rgb(164, 114, 30);"></path>
  <path class="fil1" d="M771.09 1130.19c-87.54,0 -158.76,-71.22 -158.76,-158.76 0,-87.54 71.22,-158.76 158.76,-158.76 87.54,0 158.77,71.21 158.77,158.75 0,87.54 -71.22,158.78 -158.77,158.78z" id="id_105" style="fill: rgb(164, 114, 30);"></path>
  <path class="fil1" d="M1794.19 2142.77l81.37 0 0 -363.25c0,-26.32 40,-26.33 40,0l0 363.25 81.39 0c45.59,0 82.69,-37.1 82.69,-82.69l0 -260.56 87.01 0c11.04,0 20,-8.97 20,-20l0 -429.39c0,-97.44 -79.28,-176.72 -176.74,-176.72l-228.57 0c-19.6,0 -41.68,4.89 -62.23,12.54l0 515.72c0,29.44 -23.89,53.33 -53.33,53.33l-61.16 0c0,53.92 -4.15,44.52 106.86,44.52l0 260.55c0,45.6 37.08,82.7 82.69,82.7z" id="id_106" style="fill: rgb(164, 114, 30);"></path>
  <path class="fil1" d="M1895.57 1130.19c87.54,0 158.76,-71.22 158.76,-158.76 0,-87.54 -71.22,-158.76 -158.76,-158.76 -87.54,0 -158.77,71.21 -158.77,158.75 0,87.54 71.22,158.78 158.77,158.78z" id="id_107" style="fill: rgb(164, 114, 30);"></path>
 </g>
</svg>