<svg xmlns="http://www.w3.org/2000/svg" viewBox="0 0 64 64"><title>Eggs, food, farm, health, ingredient, </title><g id="Outline"><path d="M4.132,43.872l1.325,7.95A4.984,4.984,0,0,0,10.389,56H12V54H10.389A2.99,2.99,0,0,1,7.43,51.493L5.986,42.835A1,1,0,0,0,5,42a1,1,0,0,1,0-2H59a1,1,0,0,1,0,2,1,1,0,0,0-.986.835L56.57,51.493A2.99,2.99,0,0,1,53.611,54H48.389a3,3,0,0,1-2.968-2.554l-1.443-6.658A1,1,0,0,0,43,44H40a1,1,0,0,0-.978.788L37.57,51.493A2.99,2.99,0,0,1,34.611,54H29.389a3,3,0,0,1-2.968-2.554l-1.443-6.658A1,1,0,0,0,24,44H21a1,1,0,0,0-.978.788L18.57,51.493A2.99,2.99,0,0,1,15.611,54H14v2h1.611a4.97,4.97,0,0,0,4.923-4.13L21.807,46h1.386l1.264,5.822A4.984,4.984,0,0,0,29.389,56h5.222a4.97,4.97,0,0,0,4.923-4.13L40.807,46h1.386l1.264,5.822A4.984,4.984,0,0,0,48.389,56h5.222a4.984,4.984,0,0,0,4.932-4.178l1.325-7.95a2.991,2.991,0,0,0,.1-5.7A15.078,15.078,0,0,0,59,33.527V21H57v9.081a9.4,9.4,0,0,0-2-1.815V13.657a1,1,0,0,0-.293-.707l-.656-.657A1,1,0,0,0,53.344,12H10.656a1,1,0,0,0-.707.293l-.656.657A1,1,0,0,0,9,13.657V28.266a9.4,9.4,0,0,0-2,1.815V12.414L9.414,10H54.586L57,12.414v6.634h2V12a1,1,0,0,0-.293-.707l-3-3A1,1,0,0,0,55,8H9a1,1,0,0,0-.707.293l-3,3A1,1,0,0,0,5,12V33.527a15.078,15.078,0,0,0-.969,4.647,2.991,2.991,0,0,0,.1,5.7ZM21.962,38c-.306-4.905-2.828-8.981-6.228-10.43C16.911,24.205,19.348,22,22,22c2.789,0,5.3,2.381,6.412,6-2.963,1.725-5.095,5.515-5.374,10Zm3.073,0c.352-5.046,3.342-9,6.965-9s6.613,3.954,6.965,9Zm9.7-10.43C35.911,24.205,38.348,22,41,22c2.789,0,5.3,2.381,6.412,6-2.963,1.725-5.095,5.515-5.374,10H40.962C40.656,33.1,38.134,29.02,34.734,27.57ZM57,33.869V34h.052a13.045,13.045,0,0,1,.913,4H44.035c.352-5.046,3.342-9,6.965-9C53.546,29,55.775,30.957,57,33.869Zm-46-19.8L11.07,14H52.93l.07.071V27.309a6.665,6.665,0,0,0-3.738-.08C47.855,22.864,44.634,20,41,20c-3.556,0-6.768,2.8-8.207,7.054A6.726,6.726,0,0,0,32,27a6.861,6.861,0,0,0-1.738.229C28.854,22.864,25.634,20,22,20c-3.556,0-6.769,2.8-8.207,7.054A6.726,6.726,0,0,0,13,27a6.849,6.849,0,0,0-2,.309ZM13,29c3.623,0,6.613,3.954,6.965,9H6.035a13.045,13.045,0,0,1,.913-4H7v-.131C8.225,30.957,10.454,29,13,29Z" id="id_114" style="fill: rgb(164, 114, 30);"></path></g></svg>