<svg version="1.1" id="Capa_1" xmlns="http://www.w3.org/2000/svg" xmlns:xlink="http://www.w3.org/1999/xlink" x="0px" y="0px" viewBox="0 0 460 460" style="enable-background:new 0 0 460 460;" xml:space="preserve">
<g>
	<path style="fill: rgb(164, 114, 30);" d="M390,110l0,30c16.569,0,30-13.432,30-30V95L390,110z" id="id_116"></path>
	<path style="fill: rgb(171, 122, 31);" d="M390,70l0-40c0-16.568-13.431-30-30-30c-15.741,0-28.642,12.126-29.892,27.546
		C334.771,25.908,339.777,25,345,25C369.853,25,390,45.147,390,70z" id="id_117"></path>
	<polygon style="fill: rgb(247, 193, 94);" points="430,90 390,70 390,110 	" id="id_118"></polygon>
	<path style="fill: rgb(168, 120, 32);" d="M195,405v55h70c0-16.568-13.431-30-30-30h-10v-25c-4.178,3.139-9.372,5-15,5
		S199.178,408.139,195,405z" id="id_119"></path>
	<path style="fill: rgb(173, 123, 31);" d="M210,370l0-20c0.034,0,0.068-0.001,0.102-0.001c-0.034,0-0.068,0.001-0.103,0.001V370z" id="id_120"></path>
	<path style="fill: rgb(173, 122, 28);" d="M300,260c0,48.928-39.043,88.737-87.674,89.971C293.967,348.722,360,281.933,360,200v-3.272
		L230.475,143.74L210,170C259.706,170,300,210.294,300,260z" id="id_121"></path>
	<path style="fill: rgb(181, 127, 26);" d="M389.778,208.952L390,209C390,209,389.779,208.91,389.778,208.952z" id="id_122"></path>
	<path style="fill: rgb(179, 125, 25);" d="M308.514,43.655l-76.955,98.696C231.559,142.351,308.525,43.658,308.514,43.655z" id="id_123"></path>
	<path style="fill: rgb(186, 129, 24);" d="M210,380v-30c-82.843,0-150-67.157-150-150v-30H30v30c0,90.926,67.424,166.093,155,178.264
		C193.172,379.399,201.515,380,210,380z" id="id_124"></path>
	<path style="fill: rgb(164, 114, 30);" d="M60,200c0,82.843,67.157,150,150,150V170H90V90c-10.933,0-21.173,2.938-30,8.047V200z" id="id_125"></path>
	<path style="fill: rgb(168, 120, 30);" d="M210.103,349.999c0.743,0,1.482-0.017,2.223-0.028C260.957,348.737,300,308.928,300,260
		c0-49.706-40.294-90-90-90v180C210.034,350,210.068,349.999,210.103,349.999z" id="id_126"></path>
	<path style="fill: rgb(176, 124, 28);" d="M390,170l0,30L390,170z" id="id_127"></path>
	<path style="fill: rgb(164, 114, 30);" d="M360,196.728V200c0,81.933-66.033,148.722-147.675,149.971c-0.741,0.011-1.48,0.027-2.223,0.028
		c-0.034,0-0.068,0.001-0.102,0.001l0,20v10c-8.485,0-16.828-0.601-25-1.736V385c0,8.179,3.928,15.439,10,20
		c4.178,3.139,9.372,5,15,5s10.822-1.861,15-5c6.072-4.561,10-11.822,10-20v-6.736c84.685-11.769,150.523-82.442,154.778-169.312
		C389.779,208.91,360,196.728,360,196.728z" id="id_128"></path>
	<path style="fill: rgb(173, 122, 28);" d="M390,70c0-24.853-20.147-45-45-45c-5.223,0-10.229,0.908-14.892,2.546
		c-8.739,3.069-16.252,8.744-21.583,16.112l-76.967,98.692l-1.084,1.39L360,196.728l29.779,12.182L390,209V70z" id="id_129"></path>
	<path style="fill: rgb(164, 114, 30);" d="M60,98.047C42.071,108.422,30,127.795,30,150v20h30V98.047z" id="id_130"></path>
</g>
<g>
</g>
<g>
</g>
<g>
</g>
<g>
</g>
<g>
</g>
<g>
</g>
<g>
</g>
<g>
</g>
<g>
</g>
<g>
</g>
<g>
</g>
<g>
</g>
<g>
</g>
<g>
</g>
<g>
</g>
</svg>