<svg xmlns="http://www.w3.org/2000/svg" xml:space="preserve" width="1.70666in" height="1.70666in" version="1.1" style="shape-rendering:geometricPrecision; text-rendering:geometricPrecision; image-rendering:optimizeQuality; fill-rule:evenodd; clip-rule:evenodd" viewBox="0 0 1707 1707" xmlns:xlink="http://www.w3.org/1999/xlink">
 <defs>
  <style type="text/css">
   
    .fil0 {fill:black}
   
  </style>
 </defs>
 <g id="Layer_x0020_1">
  <metadata id="CorelCorpID_0Corel-Layer"></metadata>
  <path class="fil0" d="M1340 1631l-130 0 0 -263c0,-10 -7,-17 -17,-17 -9,0 -16,7 -16,17l0 263 -100 0 0 -287c0,-9 -8,-16 -17,-16 -9,0 -17,7 -17,16l0 287 -269 0 -24 -331 28 -40 42 52c3,3 8,6 13,6l0 0 2 -1c6,-1 11,-4 13,-10l151 -342c207,13 371,157 371,333l0 303c0,17 -13,30 -30,30zm-548 -407c-1,-2 -3,-5 -6,-6l-79 -98 202 -156 54 0 -134 305 -37 -45zm-36 9l-42 60c0,1 -1,1 -1,2l-29 42 -27 -41c0,-1 -1,-3 -2,-4l-4 -4 -37 -56 70 -87 72 88zm-164 26l28 43 -24 329 -269 0 0 -217c0,-9 -8,-16 -17,-16 -9,0 -17,7 -17,16l0 217 -100 0 0 -217c0,-9 -7,-16 -16,-16 -10,0 -17,7 -17,16l0 217 -130 0c-17,0 -30,-13 -30,-30l0 -303c0,-176 163,-320 370,-333l152 343c2,5 7,9 13,10l1 0 0 0c0,0 1,0 1,0 5,0 10,-2 13,-6l42 -53zm-186 -295l48 0 206 156 -119 149 -135 -305zm407 33l-130 100 -181 -138 4 -14c44,25 95,39 151,39l56 0c52,0 104,-11 150,-36l2 9 -52 40zm-73 634l-110 0 17 -288 22 34c4,5 9,7 14,7 6,0 11,-2 14,-7l7 -10 19 -27 17 291z" id="id_101" style="fill: rgb(164, 114, 30);"></path>
  <path class="fil0" d="M713 954l-56 0c-152,0 -267,-119 -267,-276l0 -7c0,-17 13,-30 30,-30 17,0 30,13 30,30l0 7c0,125 87,216 207,216l56 0c122,0 204,-80 204,-200l0 -16c0,-17 13,-30 30,-30 16,0 30,13 30,30l0 16c0,74 -27,141 -75,188 -47,47 -114,72 -189,72z" id="id_102" style="fill: rgb(168, 120, 30);"></path>
  <path class="fil0" d="M947 708c-3,0 -6,-1 -9,-2 -11,-3 -20,-13 -21,-24 -4,-29 -4,-62 -3,-94 0,-23 1,-45 -1,-65 -2,-31 -6,-66 -11,-105 -28,7 -57,18 -87,30 -59,23 -126,48 -194,48 -55,0 -110,-16 -164,-62 -15,59 -13,116 -9,185 1,17 1,36 2,55 0,10 -5,20 -14,26 -8,5 -19,6 -29,2 -57,-27 -93,-95 -102,-197 -7,-87 5,-180 19,-238 23,-91 65,-125 141,-157 0,0 1,0 1,0 115,-44 310,-53 444,15 70,35 116,88 135,154 34,105 24,248 -25,348 0,0 0,1 0,1 -16,32 -23,40 -37,54 -4,4 -8,9 -14,15 -6,7 -14,11 -22,11z" id="id_103" style="fill: rgb(173, 123, 29);"></path>
  <polygon class="fil0" points="1323,441 1323,441 " id="id_104" style="fill: rgb(168, 119, 28);"></polygon>
  <path class="fil0" d="M1447 1004l-124 0c-16,0 -30,-13 -30,-30l0 -51c-31,-10 -59,-26 -82,-45l-44 23c-14,7 -32,2 -40,-12l-60 -103c-8,-14 -3,-32 11,-41l43 -26c-3,-15 -4,-31 -4,-48 0,-16 1,-31 4,-45l-43 -27c-14,-8 -18,-26 -11,-40l60 -107c4,-7 11,-12 19,-14 7,-2 16,-1 23,3l43 25c23,-20 52,-37 81,-48l0 -47c0,-17 14,-30 30,-30l124 0c16,0 30,13 30,30l0 48c28,10 55,27 80,48l44 -25c7,-4 16,-5 23,-3 8,2 15,7 19,14l60 107c8,14 3,32 -11,40l-44 25c4,16 5,31 5,46 0,17 -1,33 -5,49l44 25c7,4 12,11 14,18 2,8 1,16 -3,23l-60 103c-8,14 -26,19 -40,12l-45 -24c-24,20 -51,36 -81,46l0 51c0,17 -14,30 -30,30zm-64 -205c71,0 128,-57 128,-128 0,-71 -57,-124 -128,-124 -68,0 -124,56 -124,124 0,69 55,128 124,128z" id="id_105" style="fill: rgb(164, 114, 30);"></path>
 </g>
</svg>